Coordinates
version=1
nRows=12
nColumns=63
inDegrees=yes

Units are S.I. units (second, meters, Newtons, ...)
If the header above contains a line with 'inDegrees', this indicates whether rotational values are in degrees (yes) or radians (no).

endheader
time	pelvis_tilt	pelvis_list	pelvis_rotation	pelvis_tx	pelvis_ty	pelvis_tz	hip_flexion_r	hip_adduction_r	hip_rotation_r	knee_angle_r	knee_angle_r_beta	ankle_angle_r	subtalar_angle_r	mtp_angle_r	hip_flexion_l	hip_adduction_l	hip_rotation_l	knee_angle_l	knee_angle_l_beta	ankle_angle_l	subtalar_angle_l	mtp_angle_l	L5_S1_Flex_Ext	L5_S1_Lat_Bending	L5_S1_axial_rotation	L4_L5_Flex_Ext	L4_L5_Lat_Bending	L4_L5_axial_rotation	L3_L4_Flex_Ext	L3_L4_Lat_Bending	L3_L4_axial_rotation	L2_L3_Flex_Ext	L2_L3_Lat_Bending	L2_L3_axial_rotation	L1_L2_Flex_Ext	L1_L2_Lat_Bending	L1_L2_axial_rotation	L1_T12_Flex_Ext	L1_T12_Lat_Bending	L1_T12_axial_rotation	Abs_r3	Abs_r2	Abs_r1	Abs_t1	Abs_t2	neck_flexion	neck_bending	neck_rotation	arm_flex_r	arm_add_r	arm_rot_r	elbow_flex_r	pro_sup_r	wrist_flex_r	wrist_dev_r	arm_flex_l	arm_add_l	arm_rot_l	elbow_flex_l	pro_sup_l	wrist_flex_l	wrist_dev_l
1.101695	-2.437268	-4.020341	86.772575	0.203265	0.701035	0.917081	12.991821	-0.329243	12.054302	20.958923	0.365802	23.988734	-8.854156	0.000000	3.666046	1.462035	4.830093	2.660682	0.046438	24.447073	-6.775119	0.000000	-0.149961	-0.992770	-1.221038	-0.278492	-1.320384	-1.297353	-0.246371	-2.413821	-1.297353	-0.171390	-2.413821	-1.068408	-0.139254	-2.024457	-0.992094	-0.085688	-1.537801	-0.915779	-1.071155	-11.230415	-6.791048	0.000000	0.000000	20.464104	19.170251	-20.354118	51.295654	-27.046932	-2.452680	145.521368	88.307106	6.558314	15.692184	7.346876	-11.872245	98.102612	13.918530	48.040464	-13.969503	-5.412594
1.118644	-2.440541	-4.139854	86.663621	0.203513	0.700749	0.917224	13.205132	-0.273410	12.139104	21.066287	0.367676	23.912800	-9.177039	0.000000	3.706598	1.422000	4.652243	2.407755	0.042023	24.511284	-6.459327	0.000000	-0.138098	-1.002852	-1.177614	-0.256463	-1.333793	-1.251215	-0.226882	-2.438334	-1.251215	-0.157833	-2.438334	-1.030413	-0.128238	-2.045016	-0.956812	-0.078909	-1.553418	-0.883211	-0.986423	-11.344462	-6.549538	0.000000	0.000000	20.771462	18.716039	-21.069850	51.140369	-27.388027	-3.146588	146.105906	88.341255	5.516008	15.720024	6.964702	-12.714024	88.402134	16.385027	56.836329	-14.464423	-3.991709
1.135593	-2.432983	-4.240584	86.600052	0.203716	0.700578	0.917274	13.351675	-0.229513	12.122454	21.094376	0.368166	23.838908	-9.375882	0.000000	3.740005	1.374121	4.623464	2.185136	0.038138	24.499181	-6.292277	0.000000	-0.126066	-1.012171	-1.150872	-0.234117	-1.346188	-1.222802	-0.207114	-2.460993	-1.222802	-0.144081	-2.460993	-1.007013	-0.117065	-2.064020	-0.935084	-0.072034	-1.567853	-0.863154	-0.900478	-11.449884	-6.400806	0.000000	0.000000	21.055672	18.251612	-21.833790	51.042225	-27.721039	-3.667751	146.478294	88.371589	4.414678	15.719537	6.555244	-13.520350	79.051323	18.742811	65.235629	-14.899278	-2.564778
1.152542	-2.417049	-4.319051	86.569760	0.203885	0.700536	0.917282	13.446860	-0.197797	12.004163	21.073898	0.367809	23.750717	-9.447486	0.000000	3.761841	1.321274	4.732158	1.990603	0.034743	24.400213	-6.290208	0.000000	-0.114676	-1.021082	-1.145105	-0.212964	-1.358039	-1.216674	-0.188401	-2.482659	-1.216674	-0.131063	-2.482659	-1.001967	-0.106488	-2.082190	-0.930398	-0.065526	-1.581656	-0.858829	-0.819117	-11.550683	-6.368730	0.000000	0.000000	21.346243	17.807215	-22.627761	51.001645	-27.997051	-4.022586	146.649582	88.385834	3.307493	15.754099	6.129506	-14.271226	70.339391	20.909835	72.965905	-15.266055	-1.181883
1.169492	-2.404967	-4.381235	86.533743	0.204083	0.700606	0.917266	13.507813	-0.171236	11.896886	21.021655	0.366897	23.659416	-9.478515	0.000000	3.777550	1.273793	4.940962	1.828511	0.031914	24.210073	-6.461635	0.000000	-0.103487	-1.031342	-1.150224	-0.192185	-1.371685	-1.222113	-0.170018	-2.507605	-1.222113	-0.118275	-2.507605	-1.006446	-0.096098	-2.103113	-0.934557	-0.059132	-1.597549	-0.862668	-0.739196	-11.666748	-6.397201	0.000000	0.000000	21.704633	17.407435	-23.497102	51.011874	-28.218718	-4.271139	146.712921	88.397100	2.297311	16.019359	5.714694	-14.941938	62.554413	22.792761	79.750316	-15.544393	0.055817
1.186441	-2.394831	-4.430176	86.523965	0.204247	0.700786	0.917190	13.520331	-0.162265	11.741510	20.909055	0.364932	23.576743	-9.391140	0.000000	3.791253	1.231977	5.270949	1.703620	0.029734	23.943041	-6.799202	0.000000	-0.091425	-1.041661	-1.177603	-0.169786	-1.385409	-1.251203	-0.150202	-2.532694	-1.251203	-0.104490	-2.532694	-1.030403	-0.084897	-2.124155	-0.956803	-0.052240	-1.613533	-0.883202	-0.653041	-11.783476	-6.549476	0.000000	0.000000	22.091605	17.055866	-24.339535	51.072347	-28.388879	-4.376566	146.673139	88.394659	1.344105	16.369555	5.304290	-15.498881	56.003171	24.314333	85.334767	-15.770269	1.134285
1.203390	-2.368754	-4.451514	86.471279	0.204447	0.701065	0.917110	13.492519	-0.125116	11.672659	20.770283	0.362510	23.472814	-9.322699	0.000000	3.783755	1.174592	5.632873	1.616295	0.028210	23.641801	-7.257482	0.000000	-0.082673	-1.049480	-1.210432	-0.153532	-1.395809	-1.286084	-0.135823	-2.551707	-1.286084	-0.094487	-2.551707	-1.059128	-0.076770	-2.140100	-0.983476	-0.047239	-1.625645	-0.907824	-0.590523	-11.871932	-6.732059	0.000000	0.000000	22.530568	16.679466	-25.172588	51.225321	-28.489809	-4.448629	146.595976	88.383800	0.778751	17.003129	4.968197	-15.902167	51.098883	25.374139	89.408642	-15.819161	1.996380
1.220339	-2.337740	-4.461152	86.412464	0.204620	0.701404	0.916985	13.432226	-0.091117	11.597239	20.593925	0.359432	23.385756	-9.159322	0.000000	3.771683	1.115892	6.068013	1.562363	0.027268	23.312296	-7.844648	0.000000	-0.074416	-1.055190	-1.262095	-0.138197	-1.403402	-1.340975	-0.122257	-2.565588	-1.340975	-0.085050	-2.565588	-1.104333	-0.069102	-2.151743	-1.025452	-0.042521	-1.634489	-0.946571	-0.531543	-11.936517	-7.019391	0.000000	0.000000	23.008113	16.314688	-25.894849	51.465210	-28.548753	-4.368054	146.487685	88.365759	0.198663	17.691446	4.620489	-16.125686	47.687162	25.967518	92.049698	-15.716403	2.659139
1.237288	-2.294019	-4.454793	86.315356	0.204777	0.701810	0.916815	13.340472	-0.044735	11.567203	20.388692	0.355850	23.296406	-8.949549	0.000000	3.746545	1.049135	6.527483	1.539512	0.026870	22.966644	-8.543113	0.000000	-0.066973	-1.057842	-1.319462	-0.124376	-1.406930	-1.401929	-0.110031	-2.572038	-1.401929	-0.076544	-2.572038	-1.154530	-0.062192	-2.157152	-1.072063	-0.038269	-1.638598	-0.989597	-0.478384	-11.966525	-7.338454	0.000000	0.000000	23.490041	15.899980	-26.572153	51.806662	-28.560426	-4.279019	146.368766	88.343958	0.022870	18.462478	4.414713	-16.134808	46.782679	25.907846	92.419887	-15.399712	2.961257
1.254237	-2.238788	-4.418167	86.192770	0.204895	0.702277	0.916598	13.195320	0.006880	11.576835	20.144146	0.351582	23.207915	-8.705591	0.000000	3.694238	0.977533	7.011723	1.545917	0.026981	22.627958	-9.320754	0.000000	-0.061717	-1.056687	-1.385536	-0.114615	-1.405393	-1.472132	-0.101396	-2.569228	-1.472132	-0.070537	-2.569228	-1.212344	-0.057311	-2.154795	-1.125748	-0.035265	-1.636808	-1.039152	-0.440841	-11.953451	-7.705938	0.000000	0.000000	23.932111	15.395366	-27.098442	52.300419	-28.518837	-4.155924	146.226914	88.330278	0.305810	19.287145	4.382143	-15.905101	48.745467	25.121633	90.297046	-14.789202	2.873604
1.271186	-2.160355	-4.368160	86.011180	0.205027	0.702768	0.916294	13.029584	0.086405	11.645726	19.894748	0.347229	23.107610	-8.445270	0.000000	3.615121	0.885620	7.482624	1.559073	0.027211	22.291997	-10.169812	0.000000	-0.054407	-1.050692	-1.448525	-0.101040	-1.397420	-1.539058	-0.089386	-2.554652	-1.539058	-0.062182	-2.554652	-1.267459	-0.050523	-2.142570	-1.176926	-0.031088	-1.627521	-1.086394	-0.388626	-11.885634	-8.056260	0.000000	0.000000	24.304906	14.830917	-27.542642	52.870879	-28.496361	-3.947086	146.083028	88.321813	0.509535	19.959292	4.498974	-15.410203	53.715723	23.590027	85.511038	-13.917637	2.388852
1.288136	-2.155584	-4.265551	85.808573	0.205396	0.703246	0.916015	12.815395	0.110346	11.811619	19.654636	0.343038	23.043276	-8.256493	0.000000	3.497031	0.859415	7.821445	1.609359	0.028089	22.021806	-10.845005	0.000000	-0.050526	-1.055222	-1.519024	-0.093832	-1.403446	-1.613963	-0.083009	-2.565667	-1.613963	-0.057746	-2.565667	-1.329146	-0.046919	-2.151809	-1.234207	-0.028871	-1.634539	-1.139268	-0.360903	-11.936884	-8.448356	0.000000	0.000000	24.673493	14.266637	-27.816118	53.588725	-28.340926	-3.749482	145.926781	88.332429	1.179926	20.709708	4.376130	-15.412676	53.628810	23.333464	85.218512	-13.367582	2.517423
